<?xml version="1.0" encoding="UTF-8"?>
<svg id="Capa_1" data-name="Capa 1" xmlns="http://www.w3.org/2000/svg" viewBox="0 0 464.23 444.97">
  <defs>
    <style>
      .cls-1 {
        fill: #37474f;
      }

      .cls-2, .cls-3, .cls-4, .cls-5, .cls-6, .cls-7, .cls-8, .cls-9, .cls-10 {
        isolation: isolate;
      }

      .cls-2, .cls-6 {
        opacity: .1;
      }

      .cls-2, .cls-11 {
        fill: #27debf;
      }

      .cls-12 {
        fill: #b16668;
      }

      .cls-13 {
        fill: #263238;
      }

      .cls-14, .cls-3, .cls-4 {
        fill: #fff;
      }

      .cls-15 {
        fill: #f0f0f0;
      }

      .cls-3 {
        opacity: .6;
      }

      .cls-16 {
        opacity: .65;
      }

      .cls-17 {
        fill: #ffa8a7;
      }

      .cls-18 {
        fill: #f28f8f;
      }

      .cls-4, .cls-9 {
        opacity: .3;
      }

      .cls-19 {
        fill: #282828;
      }

      .cls-5 {
        opacity: .05;
      }

      .cls-7 {
        opacity: .4;
      }

      .cls-8 {
        opacity: .15;
      }

      .cls-10, .cls-20 {
        opacity: .5;
      }

      .cls-21 {
        fill: #f0997a;
      }

      .cls-22 {
        fill: #455a64;
      }

      .cls-23 {
        fill: #ebebeb;
      }

      .cls-24 {
        fill: #f5f5f5;
      }

      .cls-25 {
        fill: #ffbda7;
      }

      .cls-26 {
        fill: #fafafa;
      }

      .cls-27 {
        opacity: .8;
      }
    </style>
  </defs>
  <g id="Background">
    <path id="Background-2" class="cls-1" d="M36.83,66.53c2.72.6,6.07-4.26,11.44-11.28,6.88-8.99,13.96-15.88,22.72-22.69,9.53-7.4,17.9-11.65,31.08-18.09,5.27-2.58,8.93-3.82,13.12-5.73.72-.33,1.67-.81,1.83-1.66.18-.98-.77-2.33-1.52-2.95C110.94.36,104.38-.06,98.96,0c-6.16.09-12.2,1.43-18.01,3.31-22.92,7.41-41.3,26.03-46.27,51.92-1.23,6.43-1.03,10.58,2.14,11.28h.01ZM419.62,112.24C332.42-13.5,191.02-30.48,82.2,45.78-12.85,112.39-10.14,282.48,14.72,336.85c23.72,51.88,74.96,104.02,198.63,107.91,109.24,3.43,161.35-34.57,198.34-66.66,72.28-62.69,65.18-183.32,7.94-265.86h-.01Z"/>
  </g>
  <g id="Light">
    <polygon class="cls-2" points="356.51 149 356.51 149 236.5 103.66 236.5 103.2 179.89 82.27 125.11 199.11 180.79 260.25 237.06 227.75 367.17 152.71 356.51 149"/>
  </g>
  <g>
    <g>
      <path class="cls-11" d="M68.56,282.51h0c0-3.21,1.71-6.17,4.48-7.77l62.81-36.26c2.78-1.6,6.19-1.6,8.97,0l62.8,36.26c2.78,1.6,4.48,4.56,4.48,7.77h0l-71.77,41.44-71.78-41.44h0Z"/>
      <path class="cls-10" d="M68.56,282.51h0c0-3.21,1.71-6.17,4.48-7.77l62.81-36.26c2.78-1.6,6.19-1.6,8.97,0l62.8,36.26c2.78,1.6,4.48,4.56,4.48,7.77h0l-71.77,41.44-71.78-41.44h0Z"/>
      <path class="cls-13" d="M68.56,282.51v5.19l67.34,38.88c1.37.8,2.9,1.19,4.43,1.19s3.07-.39,4.44-1.19l67.34-38.88v-5.19l-67.34,38.88c-1.37.8-2.9,1.2-4.44,1.2s-3.05-.41-4.43-1.2l-67.34-38.88Z"/>
      <path class="cls-8" d="M212.1,282.51l-67.34,38.88c-1.37.8-2.89,1.2-4.43,1.2s-3.05-.41-4.42-1.19c0-.01,0-.01,0-.01l-3.58-2.07-63.75-36.8h0c0-2.39.93-4.62,2.56-6.27l65.94,38.06c2.03,1.17,4.52,1.17,6.55,0l65.94-38.06c1.61,1.65,2.56,3.89,2.56,6.26h-.02Z"/>
    </g>
    <g>
      <path class="cls-13" d="M142.98,114.34c0-.07,0-.15-.02-.22-.03-.35-.08-.69-.13-1.01,0-.06-.02-.12-.03-.18-.06-.31-.13-.6-.21-.89,0-.03-.02-.06-.02-.09-.09-.3-.19-.58-.3-.85-.02-.06-.05-.12-.07-.17-1.36-3.09-4.31-4.89-7.43-5.89-1.57-.5-3.18-.83-4.8-1.14-.81-.16-1.62-.31-2.43-.48-.44-.09-1.83-.18-2.1-.48-.24-.27-.46-.55-.68-.85-.03-.04-.05-.08-.08-.11-.19-.26-.37-.53-.55-.81-.04-.07-.08-.13-.12-.2-.16-.26-.31-.52-.45-.8-.05-.09-.09-.18-.14-.27-.13-.26-.25-.53-.37-.8-.05-.11-.1-.22-.14-.33-.11-.26-.21-.54-.31-.81-.05-.13-.09-.25-.14-.38-.09-.27-.18-.56-.26-.84-.04-.14-.08-.27-.12-.41-.08-.3-.16-.62-.23-.93-.03-.13-.06-.26-.09-.39-.1-.45-.18-.91-.26-1.38l-1.55-9.83c-.06-.37-.13-.72-.21-1.06-.03-.13-.07-.24-.1-.36-.06-.21-.11-.41-.18-.61-.05-.15-.11-.28-.17-.42-.06-.15-.12-.31-.18-.46-.07-.15-.15-.29-.22-.44-.71-1.35-1.96-2.14-3.16-3.05-1.34-1.02-2.88-1.78-4.49-2.25-3.16-.92-6.68-.72-9.56.95-5.19,3-10.39,6-15.58,8.99-5.02,2.9-9.34,10.15-10.29,17.28l-1.55,11.61c-1.12,8.41-4.71,17.21-9.86,24.14l-7.26,9.78c-2.75,3.7-4.45,8.59-4.45,12.83v9.18c0,4.17,1.62,7.07,4.38,10.11,1.53,1.68,3.14,3.37,4.18,5.42,1.13,2.24.64,4.56.25,6.96l-5.68,46.61c-.86,5.89-1,11.98.17,17.84.99,4.95,2.79,10.06,7.38,12.73.62.36,1.26.67,1.93.92,2.51.95,5.97,1.36,8.39.07,1.18-.63,2.32-1.34,3.48-2.01,2.94-1.7,5.87-3.39,8.81-5.09,7.05-4.07,14.11-8.15,21.16-12.22,6.21-3.58,12.41-7.17,18.62-10.75l7.39-4.27c.3-.64.59-1.28.88-1.93,1.42-3.22,2.62-6.5,3.59-9.78.78-2.62,1.4-5.24,1.88-7.83.24-1.29.44-2.58.59-3.85.32-2.55.48-5.04.48-7.46,0-2.1-.12-4.13-.37-6.09-.08-.65-.18-1.3-.29-1.93l-2.83-20.03-2.83-20.03c-.77-3.8-.65-8.21.66-12.48.78-2.56,1.99-5.07,3.69-7.36.69-.93,1.31-1.92,1.86-2.97,1.09-2.09,1.88-4.36,2.28-6.58.2-1.11.31-2.21.31-3.26v-9.18c0-.39-.02-.76-.05-1.13h-.02Z"/>
      <path class="cls-11" d="M147.07,116.84c0-.07,0-.15-.02-.22-.03-.35-.08-.69-.13-1.01,0-.06-.02-.12-.03-.18-.06-.31-.13-.6-.21-.89,0-.03-.02-.06-.02-.09-.09-.3-.19-.58-.3-.85-.02-.06-.05-.12-.07-.17-1.36-3.09-4.31-4.89-7.43-5.89-1.57-.5-3.18-.83-4.8-1.14-.81-.16-1.62-.31-2.43-.48-.44-.09-1.83-.18-2.1-.48-.24-.27-.46-.55-.68-.85-.03-.04-.05-.08-.08-.11-.19-.26-.37-.53-.55-.81-.04-.07-.08-.13-.12-.2-.16-.26-.31-.52-.45-.8-.05-.09-.09-.18-.14-.27-.13-.26-.25-.53-.37-.8-.05-.11-.1-.22-.14-.33-.11-.26-.21-.54-.31-.81-.05-.13-.09-.25-.14-.38-.09-.27-.18-.56-.26-.84-.04-.14-.08-.27-.12-.41-.08-.3-.16-.62-.23-.93-.03-.13-.06-.26-.09-.39-.1-.45-.18-.91-.26-1.38l-1.55-9.83c-.06-.37-.13-.72-.21-1.06-.03-.13-.07-.24-.1-.36-.06-.21-.11-.41-.18-.61-.05-.15-.11-.28-.17-.42-.06-.15-.12-.31-.18-.46-.07-.15-.15-.29-.22-.44-.71-1.35-1.96-2.14-3.16-3.05-1.34-1.02-2.88-1.78-4.49-2.25-3.16-.92-6.68-.72-9.56.95-5.19,3-10.39,6-15.58,8.99-5.02,2.9-9.34,10.15-10.29,17.28l-1.55,11.61c-1.12,8.41-4.71,17.21-9.86,24.14l-7.26,9.78c-2.75,3.7-4.45,8.59-4.45,12.83v9.18c0,4.17,1.62,7.07,4.38,10.11,1.53,1.68,3.14,3.37,4.18,5.42,1.13,2.24.64,4.56.25,6.96l-5.68,46.61c-.86,5.89-1,11.98.17,17.84.99,4.95,2.79,10.06,7.38,12.73.62.36,1.26.67,1.93.92,2.51.95,5.97,1.36,8.39.07,1.18-.63,2.32-1.34,3.48-2.01,2.94-1.7,5.87-3.39,8.81-5.09,7.05-4.07,14.11-8.15,21.16-12.22l18.62-10.75,7.39-4.27c.3-.64.59-1.28.88-1.93,1.42-3.22,2.62-6.5,3.59-9.78.78-2.62,1.4-5.24,1.88-7.83.24-1.29.44-2.58.59-3.85.32-2.55.48-5.04.48-7.46,0-2.1-.12-4.13-.37-6.09-.08-.65-.18-1.3-.29-1.93l-2.83-20.03-2.83-20.03c-.77-3.8-.65-8.21.66-12.48.78-2.56,1.99-5.07,3.69-7.36.69-.93,1.31-1.92,1.86-2.97,1.09-2.09,1.88-4.36,2.28-6.58.2-1.11.31-2.21.31-3.26v-9.18c0-.39-.02-.76-.05-1.13h-.02Z"/>
      <path class="cls-10" d="M147.07,116.84c0-.07,0-.15-.02-.22-.03-.35-.08-.69-.13-1.01,0-.06-.02-.12-.03-.18-.06-.31-.13-.6-.21-.89,0-.03-.02-.06-.02-.09-.09-.3-.19-.58-.3-.85-.02-.06-.05-.12-.07-.17-1.36-3.09-4.31-4.89-7.43-5.89-1.57-.5-3.18-.83-4.8-1.14-.81-.16-1.62-.31-2.43-.48-.44-.09-1.83-.18-2.1-.48-.24-.27-.46-.55-.68-.85-.03-.04-.05-.08-.08-.11-.19-.26-.37-.53-.55-.81-.04-.07-.08-.13-.12-.2-.16-.26-.31-.52-.45-.8-.05-.09-.09-.18-.14-.27-.13-.26-.25-.53-.37-.8-.05-.11-.1-.22-.14-.33-.11-.26-.21-.54-.31-.81-.05-.13-.09-.25-.14-.38-.09-.27-.18-.56-.26-.84-.04-.14-.08-.27-.12-.41-.08-.3-.16-.62-.23-.93-.03-.13-.06-.26-.09-.39-.1-.45-.18-.91-.26-1.38l-1.55-9.83c-.06-.37-.13-.72-.21-1.06-.03-.13-.07-.24-.1-.36-.06-.21-.11-.41-.18-.61-.05-.15-.11-.28-.17-.42-.06-.15-.12-.31-.18-.46-.07-.15-.15-.29-.22-.44-.71-1.35-1.96-2.14-3.16-3.05-1.34-1.02-2.88-1.78-4.49-2.25-3.16-.92-6.68-.72-9.56.95-5.19,3-10.39,6-15.58,8.99-5.02,2.9-9.34,10.15-10.29,17.28l-1.55,11.61c-1.12,8.41-4.71,17.21-9.86,24.14l-7.26,9.78c-2.75,3.7-4.45,8.59-4.45,12.83v9.18c0,4.17,1.62,7.07,4.38,10.11,1.53,1.68,3.14,3.37,4.18,5.42,1.13,2.24.64,4.56.25,6.96l-5.68,46.61c-.86,5.89-1,11.98.17,17.84.99,4.95,2.79,10.06,7.38,12.73.62.36,1.26.67,1.93.92,2.51.95,5.97,1.36,8.39.07,1.18-.63,2.32-1.34,3.48-2.01,2.94-1.7,5.87-3.39,8.81-5.09,7.05-4.07,14.11-8.15,21.16-12.22l18.62-10.75,7.39-4.27c.3-.64.59-1.28.88-1.93,1.42-3.22,2.62-6.5,3.59-9.78.78-2.62,1.4-5.24,1.88-7.83.24-1.29.44-2.58.59-3.85.32-2.55.48-5.04.48-7.46,0-2.1-.12-4.13-.37-6.09-.08-.65-.18-1.3-.29-1.93l-2.83-20.03-2.83-20.03c-.77-3.8-.65-8.21.66-12.48.78-2.56,1.99-5.07,3.69-7.36.69-.93,1.31-1.92,1.86-2.97,1.09-2.09,1.88-4.36,2.28-6.58.2-1.11.31-2.21.31-3.26v-9.18c0-.39-.02-.76-.05-1.13h-.02Z"/>
      <path class="cls-8" d="M88.8,145.42c13.19-10.52,25.35-17.51,36.47-20.88l-36.47,20.88Z"/>
      <path class="cls-11" d="M85.37,157.95l-3.75-18.17c-.79-3.85-3.12-7.22-6.44-9.32l-.69-.44c-1.62,3.78-3.66,7.39-6.04,10.59l-4.61,6.2.72.42c3.35,1.98,5.77,5.22,6.71,9l5.08,20.41,6.26-2.99s-9.15,60.18-4.79,99.37h.01l.17-.1c.53-9.71,4.62-76.35,19.9-116.44l-12.54,1.48h.01Z"/>
      <path class="cls-9" d="M85.37,157.95l-3.75-18.17c-.79-3.85-3.12-7.22-6.44-9.32l-.69-.44c-1.62,3.78-3.66,7.39-6.04,10.59l-4.61,6.2.72.42c3.35,1.98,5.77,5.22,6.71,9l5.08,20.41,6.26-2.99s-9.15,60.18-4.79,99.37h.01l.17-.1c.53-9.71,4.62-76.35,19.9-116.44l-12.54,1.48h.01Z"/>
      <path class="cls-11" d="M137.58,107.7l-1-.78c-.91-.2-2.58-.6-3.95-.85-1.51-.27-2.83-.4-3.11-.64l-3.04,32.04-11.11,14.97c15.28,22.45,16.26,80.11,16.79,89.22l.19-.11c4.36-44.23-6.61-91.58-6.61-91.58l8.08-6.49,5.85-30.27c.4-2.08-.4-4.21-2.07-5.51h-.02Z"/>
      <path class="cls-9" d="M137.58,107.7l-1-.78c-.91-.2-2.58-.6-3.95-.85-1.51-.27-2.83-.4-3.11-.64l-3.04,32.04-11.11,14.97c15.28,22.45,16.26,80.11,16.79,89.22l.19-.11c4.36-44.23-6.61-91.58-6.61-91.58l8.08-6.49,5.85-30.27c.4-2.08-.4-4.21-2.07-5.51h-.02Z"/>
      <g>
        <path class="cls-13" d="M111.05,103.93l6.51.12c.58.01.58,1.27,0,1.96l-6.46,7.61c-.44.52-.93.3-.93-.43l-.05-7.73c0-.74.48-1.53.93-1.53Z"/>
        <path class="cls-13" d="M100.48,110.03l-6.51,7.64c-.58.68-.58,1.95,0,1.96l6.46.15c.44.01.93-.77.93-1.51l.05-7.79c0-.75-.48-.98-.93-.45Z"/>
      </g>
      <path class="cls-8" d="M64.52,244.12c1.41-11.44,4.46-37.62,4.98-44.53.34-4.56-1.93-8.39-4.12-11.47,1.01,2.18.56,4.43.18,6.77l-5.68,46.61c-.86,5.89-1,11.98.17,17.84.99,4.95,2.79,10.06,7.38,12.73.62.36,1.26.67,1.93.92.76.29,1.62.52,2.5.67-6.09-4.34-8.75-18.12-7.34-29.55h0ZM119.78,79.88c-1.34-1.02-2.88-1.78-4.49-2.25-3.16-.92-6.68-.72-9.56.95-5.19,3-10.39,6-15.58,8.99-5.02,2.9-9.34,10.15-10.29,17.28l-1.55,11.61c-1.12,8.41-4.71,17.21-9.86,24.14l-7.26,9.78c-2.75,3.7-4.45,8.59-4.45,12.83v9.18c0,4.17,1.62,7.07,4.38,10.11.44.48.88.97,1.32,1.46h0c-2.08-3.46-1.1-8.69-.96-18.1s7.33-16.53,12.86-22.74,9.37-19.24,11.23-32.16c1.87-12.91,4.42-16.11,16.36-23.2,9.97-5.92,17.02-8.02,19.83-6.3-.61-.57-1.3-1.06-1.98-1.58Z"/>
      <path class="cls-8" d="M88.76,248.78c-3.1-20.63-4.89-60.66,0-94.01-4.04,10.88-6.2,40.41-4.04,64.6,2.13,23.75,4.04,29.4,4.04,29.4h0Z"/>
      <path class="cls-8" d="M125.11,227.79c3.1-24.21,4.89-66.31,0-94.01,4.04,6.21,6.2,33.24,4.04,59.94-2.13,26.21-4.04,34.07-4.04,34.07Z"/>
    </g>
  </g>
  <path class="cls-8" d="M179.97,274.19c2.83-4.75,1.45-10.9-.95-15.88-.02-.04-.04-.07-.06-.11l-34.14-19.71c-2.19-1.26-4.77-1.51-7.12-.79.14-.3.28-.59.41-.89,1.42-3.22,2.62-6.5,3.59-9.78.78-2.62,1.4-5.24,1.88-7.83.24-1.29.44-2.58.59-3.85.32-2.55.48-5.04.48-7.46,0-2.1-.12-4.13-.37-6.09-.08-.65-.18-1.3-.29-1.93l-2.83-20.03-2.83-20.03c-.77-3.8-.65-8.21.66-12.48.78-2.56,1.99-5.07,3.69-7.36.69-.93,1.31-1.92,1.86-2.97,1.09-2.09,1.88-4.36,2.28-6.58.2-1.11.31-2.21.31-3.26v-9.18c0-.39-.02-.76-.05-1.13,0-.07,0-.15-.02-.22-.03-.35-.08-.69-.13-1.01,0-.06-.02-.12-.03-.18-.06-.31-.13-.6-.21-.89,0-.03-.02-.06-.02-.09-.09-.3-.19-.58-.3-.85-.02-.06-.05-.12-.07-.17-1.18-2.68-3.57-4.4-6.22-5.45-1.47-1.37-3.36-2.31-5.31-2.93-1.57-.5-3.18-.83-4.8-1.14-.61-.12-1.22-.24-1.82-.36-.02-.03-.03-.05-.05-.07-.16-.26-.31-.52-.45-.8-.05-.09-.09-.18-.14-.27-.13-.26-.25-.53-.37-.8-.05-.11-.1-.22-.14-.33-.11-.26-.21-.54-.31-.81-.05-.13-.09-.25-.14-.38-.09-.27-.18-.56-.26-.84-.04-.14-.08-.27-.12-.41-.08-.3-.16-.62-.23-.93-.03-.13-.06-.26-.09-.39-.1-.45-.18-.91-.26-1.38l-.73-4.61c-4.65,1.87-7.29,3.56-9.85,8.45-3.23,6.17-4.57,19.91-3.84,26.84.79,7.47,3.59,11.21,3.59,11.21l-2.21,9.05c-2.91,1.12-15.07,4.44-19.76,7.6-5.01,3.37-7.46,6.88-9.32,12.76-6.93,21.86-10.38,44.77-10.94,67.71-.2,8.24-.61,20.91,5.42,27.33,12.25,13.05,30.44,19.8,46.26,27.32,5.97,2.84,12.32,5.75,18.89,5.06,8.72-.91,15.45-7.81,23.29-11.75,4.92-2.47,10.79-4.15,13.6-8.87l-.02-.06Z"/>
  <g>
    <g>
      <path class="cls-22" d="M213.84,287.24l-22.58,13.04-2.62,1.51-14.84,8.56-8.11,4.69-22.04-32.86,4.5-17.73h0l.04-.13,8.12-31.99c9.1,7.8,41.18,29.74,53.84,43.4,2.61,2.8,3.82,6.1,3.68,11.5h.01Z"/>
      <path class="cls-1" d="M191.26,300.28l-2.62,1.51-14.84,8.56c-12.23-20.74-24.67-44.07-25.64-45.9h0l-.06-.12s.04-.01.1-.01c.36-.05,1.58-.22,1.59-.23,9.25-3.84,12.52-14.9,12.52-14.9.99,5.08-2.66,12.1-6.41,14.61,2.92,2.95,18.28,18.14,29.81,28.8,2.15,1.99,4.33,4.31,5.55,7.68h0Z"/>
    </g>
    <path class="cls-22" d="M165.69,315.04l-6.37,3.67c-.65-1.63-1.46-2.81-2.53-3.42-4.04-2.32-24.31-12.61-40.81-22.36-17.13-10.13-21.42-17.27-24.26-24.24-2.51-6.13-1.65-13.58-1.74-26.7l66.34-9.66c6.14,17.22-6.53,31.76-6.53,31.76,0,0,27.24,24.1,33.27,30.33,2.88,2.98,4.54,5.27,5.58,7.37l-14.84,8.56-8.11,4.69h0Z"/>
  </g>
  <g id="Desk">
    <polygon class="cls-11" points="185.7 411.29 52.41 334.37 294.76 194.46 428.05 271.4 185.7 411.29"/>
    <g class="cls-27">
      <polygon class="cls-14" points="185.7 411.29 52.41 334.37 294.76 194.46 428.05 271.4 185.7 411.29"/>
    </g>
    <polygon class="cls-11" points="52.4 334.34 52.41 348.33 185.7 425.29 185.7 411.26 52.4 334.34"/>
    <g class="cls-20">
      <polygon class="cls-14" points="52.4 334.34 52.41 348.33 185.7 425.29 185.7 411.26 52.4 334.34"/>
    </g>
    <polygon class="cls-11" points="185.7 425.29 428.05 285.41 428.05 271.38 185.7 411.26 185.7 425.29"/>
    <g class="cls-16">
      <polygon class="cls-14" points="185.7 425.29 428.05 285.41 428.05 271.38 185.7 411.26 185.7 425.29"/>
    </g>
  </g>
  <g id="mano_izquierda_" data-name="mano_izquierda

">
    <path class="cls-17" d="M172.76,238.24c-9.67-1.65-12.8-4.73-15.3-17.95-2.68-14.19-4.26-34.05-4.9-46.94-1.05-21.2,6.07-23.12,6.07-23.12,11.3,1.7,18.02,7.13,19.11,21.82,1.04,13.95,4.06,44.31,4.06,44.31"/>
    <path class="cls-1" d="M158.63,150.22s8.47-.18,13.71,5.89c5.24,6.07,6.28,12.03,7.26,25.5s1.59,21.13,1.59,21.13c0,0-10.29,9.4-26.89,6.51-.33-.58-3.84-18.44-3.49-33.48.35-15.04.96-23.09,7.82-25.54h0Z"/>
    <path id="Hand" class="cls-17" d="M181.8,216.35s4.32,1.4,24.54,7.73c8.82,2.76,18.66,5.6,26.15,9.54,4.15,2.18,11.73,6.86,13.4,8.61s9.6,11.8,11.08,14.64c1.48,2.84,5.08,8.65-.64,10.06-5.23,1.29-9.26-1.17-13.23-4.29-2.56-2.01-5.26-4.94-5.26-4.94,0,0-6.64,1.16-11.86-3.15-2.39-1.98-5-5.9-7.68-7.29-8.02-2.58-23.34-4.08-45.54-9.03"/>
  </g>
  <g>
    <path class="cls-13" d="M89.61,299.85l-4.79,2.77c-.54.31-1.13.47-1.71.47s-1.17-.16-1.71-.47c-1.07-.62-1.71-1.73-1.71-2.96v-26.89l3.11,1.79v25.09c0,.12.05.21.16.26.1.06.2.06.31,0l3.24-1.87,3.11,1.8h-.01Z"/>
    <path class="cls-13" d="M104.85,308.65l-4.85,2.74c-.54.31-1.12.47-1.71.47s-1.17-.16-1.71-.47c-1.07-.62-1.71-1.73-1.71-2.96v-26.89l3.11,1.73v25.16c0,.12.06.21.16.26.1.06.2.06.31,0l3.24-1.87,3.17,1.83h-.01Z"/>
    <path class="cls-13" d="M138.18,283.46l-50.52-29.31c-4.47-2.58-11.71-2.58-16.18,0l-.35.25c-2.23,1.28-3.34,2.97-3.34,4.65v4.11c0,1.69,1.11,3.38,3.34,4.67l50.6,29.21c4.47,2.58,11.71,2.58,16.18,0l.28-.16c2.23-1.29,3.35-2.98,3.34-4.67v-4.08c0-1.7-1.1-3.39-3.34-4.69v.02Z"/>
    <path class="cls-11" d="M71.13,263.74l50.6,29.21c4.47,2.58,11.71,2.58,16.18,0l.28-.16c4.47-2.58,4.47-6.77,0-9.35l-50.52-29.31c-4.47-2.58-11.71-2.58-16.18,0l-.35.25c-4.47,2.58-4.47,6.76,0,9.35h-.01Z"/>
    <path class="cls-7" d="M71.13,263.74l50.6,29.21c4.47,2.58,11.71,2.58,16.18,0l.28-.16c4.47-2.58,4.47-6.77,0-9.35l-50.52-29.31c-4.47-2.58-11.71-2.58-16.18,0l-.35.25c-4.47,2.58-4.47,6.76,0,9.35h-.01Z"/>
    <path class="cls-6" d="M138.18,283.46l-50.52-29.31c-.86-.49-1.82-.89-2.84-1.2-3.34.93-6.5,3.21-5.72,6.44.3,1.25,1.28,2.22,2.27,3.06,3.35,2.86,7.16,5.11,10.96,7.33,12.11,7.11,24.22,14.22,36.33,21.33,1.9,1.11,3.83,2.24,5.82,3.21,1.24-.32,2.41-.77,3.42-1.35l.28-.16c4.47-2.58,4.47-6.77,0-9.35h0Z"/>
    <path class="cls-8" d="M71.13,254.4c-4.47,2.58-4.47,6.76,0,9.35l50.6,29.21c4.47,2.58,11.71,2.58,16.18,0l.28-.16c.89-.51,1.59-1.09,2.13-1.7l.03-.16s-3.79,3.2-11.85,1.68c-3.77-.71-6.74-2.76-12.73-6.01-12.99-7.04-30.3-17.39-36.07-21.11-10-6.44-12.66-8.44-8.56-11.11h-.01Z"/>
  </g>
  <path class="cls-15" d="M168.48,181.37c-.64,3.8-2.04,12.99-3.09,22.41-.89,8.09-1.06,13.07-.76,20.41.12,3.01.64,5.87.64,15.87-7.98,8.09-17.61,14.68-30.56,16.91-18.36,2.71-38.33,2.71-45.84-5.75-.81-57.37,3.58-92.28,21.9-98.4,14.59-4.87,27.44-5.37,29.11-5.2,14.35,1.49,20.15,2.91,20.15,2.91,12.7,2.86,10.18,22.93,8.43,30.84h.02Z"/>
  <polygon id="Heart" class="cls-22" points="139.24 190.32 142.27 189.2 141.92 191.23 144.94 190.11 144.21 194.43 147.23 193.31 147.97 188.98 150.99 187.86 151.33 185.83 154.35 184.71 154.01 186.74 157.03 185.61 156.3 189.94 159.32 188.82 158.24 195.17 155.22 196.3 154.69 199.48 151.66 200.6 151.13 203.78 148.11 204.9 147.57 208.08 144.55 209.2 144.01 212.38 140.99 213.51 141.52 210.33 138.5 211.45 139.04 208.27 136.02 209.4 136.56 206.22 133.54 207.34 134.07 204.16 131.05 205.29 132.13 198.93 135.15 197.81 135.88 193.48 138.9 192.35 139.24 190.32"/>
  <g id="cabeza">
    <g>
      <g>
        <path class="cls-13" d="M183.3,94.74c-.4-.19-.82-.34-1.24-.46,1.78-2.06,2.36-5.08,1.49-7.66s-3.18-4.62-5.84-5.17c-2.47-.52-5.04.18-7.37,1.16-2.33.97-4.23,1.88-6.66,2.56-4.97-.75-7.98-.03-11.34.72-2.01-.19-3.94-.31-5.91-.68-2.08-.39-4.2-.62-6.31-.48-2.88.19-6.63.89-8.85,2.74s-3.66,3.8-3.15,7.78c-2.89,1.33-4.07,4.43-4.63,7.56-.75,4.12-.55,10.24-.28,14.37.11,1.63.98,17.76,2.38,23.42.66,2.69,2.96,3.79,3.11,3.85l4.7-13.02.53-7.53s1.87-2,3.67-4.71c.52-.76,1.01-1.57,1.47-2.41.36-.64.68-1.32.96-1.99.12.71.27,1.39.47,2.07.24.89.55,1.76.91,2.6,2.57,6.01,8.02,10.62,14.84,11.89.43.08.87.15,1.31.2,2.08.25,4.13.17,6.09-.19,3.48-.65,6.71-2.43,9.36-4.76,1.28-1.12,2.34-2.49,3.12-4,.17-.34,1.54-4.37,1.33-4.37,3.19-.06,6.25-2.17,7.43-5.14s.42-6.6-1.84-8.84c2.45.07,4.35-2.65,3.96-5.06-.32-1.98-1.84-3.58-3.67-4.45h-.04ZM141.64,102.93s-.03.05-.04.08c-.09.2-.17.4-.27.61-.09-.57-.2-.85-.2-.85.17.05.35.11.51.16Z"/>
        <path class="cls-17" d="M177.1,129.97c-.86,5.13-2.36,9.94-3.64,13.01-2.13,5.16-5.7,8.68-10.72,8.85-3.03.11-10.62-2.1-10.62-2.1l-2.97,6.94c3.81,5,1.86,6.51-2.85,7.06-2.56.32-7.46-1.2-9.89-2.41-8.88-4.41-9.74-9.13-9.74-9.13l.11-1.05,5.2-18.09s-.76,2.03-4.48,1.32c-.72-.13-1.49-.44-2.31-.95-3.49-2.17-7.36-9.96-4.21-14.94,1.11-1.76,2.43-2.55,3.73-2.72,2.06-.29,4.09.78,5.31,2.41.61.81,1.04,1.71,1.5,2.6.37.73.81,1.72,1.58,2.11.43.22.87.13,1.26-.13.84-.56,1.99-1.53,3.11-3.56.39-.68.76-1.48,1.13-2.43,1.13-2.97,2.12-7.38,2.55-13.97.16.08.31.16.47.24,8.17,4.27,15.97,6.04,22.23,6.06,6.16.03,11.79-.61,13.79-3.33,1.75,3.84.81,16.22-.53,24.22h-.01Z"/>
        <path class="cls-18" d="M152.12,149.72s-7.13-2.71-10.74-5.21c-2.41-1.68-3.86-6.17-4.3-7.76,0,0-.94,5.46,1.01,8.68,2.38,3.93,12.7,7.4,12.7,7.4l1.33-3.1h0Z"/>
      </g>
      <g>
        <path class="cls-13" d="M156.96,114.17l-5.38.68c-.15-1.53.94-2.92,2.43-3.11,1.49-.19,2.81.9,2.96,2.42h0Z"/>
        <path class="cls-12" d="M153.62,135.56l9.06,3.68c-1.12,2.53-4.05,3.76-6.55,2.74-2.5-1.02-3.63-3.89-2.51-6.42Z"/>
        <path class="cls-18" d="M158.82,142.25c-.56-2.54-2.93-4.32-5.58-4.05.21,1.65,1.24,3.12,2.89,3.78.88.36,1.8.42,2.69.27Z"/>
        <path class="cls-13" d="M177.11,117.74l-5.03-2.16c.55-1.42,2.12-2.09,3.51-1.5,1.39.6,2.07,2.23,1.52,3.65h0Z"/>
      </g>
      <ellipse id="ojo_izquierdo_" data-name="ojo_izquierdo

" class="cls-19" cx="155.85" cy="123.14" rx="1.6" ry="2.44"/>
      <ellipse id="ojo_derecho_" data-name="ojo_derecho

" class="cls-19" cx="173.4" cy="124.55" rx="1.6" ry="2.44"/>
    </g>
    <g>
      <path class="cls-1" d="M181.9,119.77c-.29-.07-.6-.13-.92-.19-.75-.15-1.55-.28-2.37-.39-.48-.07-.97-.12-1.45-.16-2.03-.21-4.04-.24-5.53.07-3.08.64-4.24,1.55-5.89,1.43-1.65-.15-2.64-1.2-5.58-2.29-.16-.06-.93-.27-1.41-.41-2.86-.81-6.34-1.05-9.61-.99-.35,0-.68.01-1.01.03-.19.01-.4.09-.6.25-.36.27-.65.73-.69,1.27-.04.51.15.96.36,1.33.13.25.28.47.37.63.09.19.19.44.23.79.19,1.33.11,3.85.6,5.29.2.57.49,1.29,1.05,1.97.17.21.36.41.57.6.12.09.23.19.35.28.31.23.65.43,1.07.61.05.03.12.05.17.07.09.04.19.08.29.12.09.03.19.07.29.09.29.09.63.17.97.24.13.03.28.04.41.07.17,0,.35.04.53.05.52.04,1,.05,1.44.04,3.12-.12,4.75-1.68,5.84-3.33,1.13-1.71,2.16-3.99,3.6-4.3h.03s.09-.01.15-.01c.08-.03.17-.03.28-.01.07,0,.12.01.19.03.05,0,.11.01.16.04,1,.32,1,1.77,1.2,3.28.07.53.16,1.08.33,1.59.24.69.55,1.39,1.01,2.01.03.04.05.07.08.11.09.12.19.23.28.33.05.07.11.11.16.16l.16.16c.05.04.09.09.15.13.09.07.12.11.16.13.04.03.09.07.13.09.03.03.05.05.09.07.04.03.08.05.12.08.4.28.88.51,1.43.69.05,0,.09.04.15.05.57.17,1.23.29,1.97.36,1.25.09,2.25-.07,3.08-.37,1.69-.61,2.59-1.85,3.12-2.76.8-1.33,1.33-3.81,1.8-5.09.09-.29.25-.49.43-.65.32-.29.95-1.01,1.09-1.84.15-.84-.32-1.64-.83-1.75h0ZM160.86,125.58c-.52,1.01-1.57,2.67-3.53,3.34-2.57.88-6.18.15-7.28-1.98-1.01-1.81-1.37-6.45-.2-7.83,1.72-1.44,9.81-.49,11.78,2.16.51.89.12,2.56-.78,4.31h0ZM179.22,126.37c-.32.93-.97,2.85-2.72,3.85-.2.12-.44.23-.68.32-.65.24-1.41.36-2.33.29-1.88-.12-3.04-.8-3.77-1.67-.21-.24-.37-.49-.52-.76,0,0,0-.03,0-.03-.03-.04-.05-.09-.07-.13-.03-.05-.05-.11-.08-.16,0,0-.03-.05-.04-.08-.03-.07-.05-.15-.08-.23-.04-.08-.07-.17-.09-.25,0-.05-.03-.09-.04-.13,0-.03,0-.05-.03-.07,0-.04,0-.08-.03-.11,0-.04,0-.07,0-.09-.11-.37-.15-.73-.17-1.04-.13-1.56-.08-3.36.59-4.15.68-.8,3.04-1.55,5.23-1.63.51-.03.99-.01,1.41.01.05,0,.12,0,.17.01.05,0,.12,0,.17.01.16.01.33.03.48.05.07,0,.12.01.17.03.08.01.16.03.23.04.05,0,.09.01.15.03.08.01.16.03.24.04.19.04.36.09.53.15.05.01.09.03.15.04.05.01.11.03.16.05,0,0,.03,0,.04.01.04.01.08.03.11.04.05.01.12.04.17.05.07.03.13.05.19.08.12.05.23.11.32.16,0,.01.04.03.05.04.31.17.55.35.69.52.59.67-.11,3.33-.57,4.68v.03Z"/>
      <path class="cls-1" d="M148.36,117.05l-21.69-1.25c1.54.7,2.19,1.44,3.01,2.64l18.12,1.27.57-2.66h0Z"/>
    </g>
    <path class="cls-18" d="M164.3,123.38l-.36,11.31,6.9-1.43-5.69-10.34c-.38.05-.77.36-.84.46h0Z"/>
  </g>
  <g id="Mouse">
    <path class="cls-8" d="M173.82,317.88c0-.11,0-.22,0-.33v-.05c-.33-8.79-11.81-17.01-21.54-18.65-9.88-1.66-15.71,5.43-15.71,9.95l.03.03c-.22,3.3,2.9,7.14,8.89,10.14,9.21,4.61,20.74,6,25.76,3.1,1.75-1.01,2.57-2.48,2.57-4.18h.02-.01Z"/>
    <path class="cls-1" d="M173.26,315.85c0-.11,0-.21,0-.32v-.05c-.32-8.38-11.26-16.22-20.54-17.78-9.42-1.58-14.98,5.18-14.98,9.49,0,0,.02.03.03.03-.21,3.14,2.77,6.81,8.48,9.66,8.78,4.4,19.77,5.72,24.56,2.96,1.67-.96,2.45-2.36,2.45-3.99h.02,0Z"/>
    <path class="cls-11" d="M167.43,304.99c-8.81,2.15-13.1,9.74-14.42,14.58.32.1.64.18.96.27,1.28-4.71,5.52-12.21,14.32-14.04-.28-.28-.56-.54-.85-.81h-.01Z"/>
    <path class="cls-11" d="M171.87,319.05c-.1-6.7-4.51-10.74-8.6-12.21l-.34.94c4.11,1.48,8.19,5.39,7.95,12.01.37-.22.71-.47.99-.74h0Z"/>
  </g>
  <g id="mano_derecha_" data-name="mano_derecha

">
    <path class="cls-17" d="M133.02,292.32c-6.54-6.22-32.81-20.63-42.87-28.77-10.43-8.43-11.29-10.47-10.29-23.88.87-11.74,5.63-50.98,8.08-63.66,2.6-13.47,7.01-19.92,21.35-22.68,4.37,4.57,9.51,18.26,4.14,40.42-2.23,10.88-7.7,46.86-7.7,46.86,0,0,9.62,9.78,22.6,22.38,5.87,5.7,14.34,13.02,21.37,17.73,3.9,2.61,10.94,8.06,12.42,9.97,1.48,1.92,8.31,12.75,9.48,15.73s4.14,9.13-1.7,9.94c-5.34.73-9.08-2.13-12.71-5.65-2.33-2.27-4.71-5.47-4.71-5.47,0,0-6.22-.09-11.47-4.38-2.83-2.31-8-8.53-8-8.53h.01Z"/>
    <path class="cls-1" d="M110.79,152.82c-9.56,1.95-18.38,2.95-22.81,20.16s-7.3,43.37-7.3,43.37c0,0,15.94,10.38,29.12,2.99l7.23-36.59s3.52-19.43-6.24-29.94h0Z"/>
  </g>
  <g id="Keyboard">
    <path id="Shadow" class="cls-8" d="M169.9,293.98l27.25,15.8c.82.47,2.15.48,2.97,0l78.2-45.09c.82-.47.82-1.24,0-1.71l-27.25-15.8c-.82-.47-2.15-.48-2.97,0l-78.2,45.09c-.82.47-.82,1.24,0,1.71h0Z"/>
    <g id="Keyboard-2">
      <g>
        <path class="cls-13" d="M275.13,260.65c0-.3-.2-.61-.6-.84l-24.37-14.07c-.8-.46-2.1-.46-2.91,0l-74.38,43.01c-.4.23-.6.54-.6.84v2.56c0,.3.2.61.6.84l24.36,14.07c.8.46,2.11.46,2.91,0l74.38-42.94c.4-.23.6-.53.6-.84v-2.62h.01Z"/>
        <path class="cls-1" d="M197.23,304.43l-24.36-14.01c-.8-.46-.8-1.21,0-1.68l74.38-43.01c.8-.46,2.1-.46,2.91,0l24.37,14.07c.8.46.8,1.22,0,1.68l-74.38,42.94c-.8.46-2.11.46-2.91,0h0Z"/>
        <path class="cls-13" d="M198.59,304.78v2.61c-.49-.01-.98-.12-1.37-.34l-24.35-14.07c-.4-.23-.6-.54-.6-.84v-2.56c0,.3.2.6.6.84l24.35,14.01c.38.21.87.33,1.37.34h0Z"/>
      </g>
      <path class="cls-11" d="M248.52,247.96h.05l2.41,1.39-3.27,1.89-2.49-1.4,3.27-1.89h.03ZM252.3,250.14h.05l2.41,1.39-2.57,1.48-2.49-1.4,2.57-1.48h.03ZM243.95,250.59h.05l2.41,1.39-2.57,1.48-2.49-1.4,2.57-1.48h.03ZM256.07,252.32h.06l2.41,1.39-4.15,2.4-2.5-1.4,4.15-2.4h.03ZM248.43,252.37h.05l2.41,1.39-2.04,1.18-2.5-1.4,2.04-1.18h.04ZM240.08,252.83h.05l2.41,1.39-2.57,1.48-2.49-1.4,2.57-1.48h.03ZM245.08,254.3s.05,0,.06,0l2.41,1.39-2.04,1.18-2.49-1.4,2.04-1.18h.03,0ZM259.85,254.5h.06l2.41,1.39-3.27,1.89-2.49-1.4,3.27-1.89h.03-.01ZM236.21,255.06h.05l2.41,1.39-18.57,10.72-2.49-1.4,18.57-10.72h.03ZM250.62,255.46h.06l2.41,1.39-2.04,1.18-2.49-1.4,2.04-1.18h.03,0ZM241.74,256.23h.06l2.41,1.39-2.04,1.18-2.49-1.4,2.04-1.18h.03,0ZM263.62,256.68h.06l2.41,1.39-2.04,1.18-2.5-1.4,2.04-1.18h.03ZM255.28,257.14h.05l2.41,1.39-2.04,1.18-2.49-1.4,2.04-1.18h.03ZM247.28,257.39h.06l2.41,1.39-2.04,1.18-2.5-1.4,2.04-1.18h.03ZM238.4,258.16h.06l2.41,1.39-2.04,1.18-2.49-1.4,2.04-1.18h.03,0ZM260.28,258.61h.06l2.41,1.39-2.04,1.18-2.49-1.4,2.04-1.18h.03-.01ZM251.93,259.07h.05l2.41,1.39-2.04,1.18-2.49-1.4,2.04-1.18h.03ZM243.94,259.32s.05,0,.05.01l2.41,1.39-2.04,1.18-2.5-1.4,2.04-1.18h.04ZM268.21,259.32s.05,0,.05.01l2.41,1.39-2.57,1.48-2.49-1.4,2.57-1.48h.03ZM235.06,260.09h.06l2.41,1.39-2.04,1.18-2.49-1.4,2.04-1.18h.03,0ZM256.94,260.54h.06l2.41,1.39-2.04,1.18-2.49-1.4,2.04-1.18h.03,0ZM248.59,260.99h.05l2.41,1.39-2.04,1.18-2.49-1.4,2.04-1.18h.03ZM240.6,261.25h.05l2.41,1.39-2.04,1.18-2.49-1.4,2.04-1.18h.03ZM231.72,262.02h.06l2.41,1.39-2.04,1.18-2.49-1.4,2.04-1.18h.03,0ZM262.88,262.4h.05l2.41,1.39-2.04,1.18-2.49-1.4,2.04-1.18h.03ZM253.6,262.46s.05,0,.06.01l2.41,1.39-2.04,1.18-2.5-1.4,2.04-1.18h.03ZM245.25,262.92h.05l2.41,1.39-2.04,1.18-2.49-1.4,2.04-1.18h.03ZM237.25,263.18s.05,0,.06.01l2.41,1.39-2.04,1.18-2.49-1.4,2.04-1.18h.03,0ZM228.38,263.94s.05,0,.05.01l2.41,1.39-2.04,1.18-2.49-1.4,2.04-1.18h.03ZM259.54,264.32h.06l2.41,1.39-2.04,1.18-2.49-1.4,2.04-1.18h.03-.01ZM250.26,264.39h.05l2.41,1.39-2.04,1.18-2.49-1.4,2.04-1.18h.03ZM241.91,264.85h.05l2.41,1.39-2.04,1.18-2.49-1.4,2.04-1.18h.03ZM233.91,265.11h.05l2.41,1.39-2.04,1.18-2.49-1.4,2.04-1.18h.03ZM225.04,265.87h.05l2.41,1.39-2.04,1.18-2.49-1.4,2.04-1.18h.03ZM256.2,266.25h.06l2.41,1.39-2.04,1.18-2.49-1.4,2.04-1.18h.03,0ZM246.92,266.32h.06l2.41,1.39-2.04,1.18-2.49-1.4,2.04-1.18h.03,0ZM216.34,266.54h.05l2.41,1.39-2.57,1.48-2.5-1.4,2.57-1.48h.04ZM238.57,266.78h.05l2.41,1.39-2.04,1.18-2.49-1.4,2.04-1.18h.03ZM230.57,267.04h.05l2.41,1.39-2.04,1.18-2.49-1.4,2.04-1.18h.03ZM221.7,267.8s.05,0,.06.01l2.41,1.39-2.04,1.18-2.49-1.4,2.04-1.18h.03,0ZM252.86,268.18h.05l2.41,1.39-2.04,1.18-2.49-1.4,2.04-1.18h.03ZM243.58,268.25s.05,0,.06.01l2.41,1.39-2.04,1.18-2.49-1.4,2.04-1.18h.03,0ZM235.23,268.71h.05l2.41,1.39-2.04,1.18-2.49-1.4,2.04-1.18h.03ZM212.47,268.77s.05,0,.06.01l2.41,1.39-2.57,1.48-2.5-1.4,2.57-1.48h.03ZM227.23,268.97s.05,0,.06.01l2.41,1.39-2.04,1.18-2.49-1.4,2.04-1.18h.03,0ZM218.35,269.73s.05,0,.06.01l2.41,1.39-2.04,1.18-2.49-1.4,2.04-1.18h.03,0ZM240.24,270.18h.05l2.41,1.39-2.04,1.18-2.5-1.4,2.04-1.18h.04ZM231.89,270.64h.05l2.41,1.39-2.04,1.18-2.49-1.4,2.04-1.18h.03ZM223.89,270.9h.05l2.41,1.39-2.04,1.18-2.49-1.4,2.04-1.18h.03ZM248.07,270.95h.05l2.41,1.39-2.04,1.18-2.49-1.4,2.04-1.18h.03ZM208.6,271h.06l2.41,1.39-2.57,1.48-2.49-1.4,2.57-1.48h.03,0ZM215.01,271.66h.05l2.41,1.39-2.04,1.18-2.49-1.4,2.04-1.18h.03ZM236.89,272.11s.05,0,.06.01l2.41,1.39-2.04,1.18-2.5-1.4,2.04-1.18h.03ZM228.55,272.57h.05l2.41,1.39-2.04,1.18-2.49-1.4,2.04-1.18h.03ZM220.55,272.82h.05l2.41,1.39-2.04,1.18-2.49-1.4,2.04-1.18h.03ZM244.73,272.88h.05l2.41,1.39-2.04,1.18-2.49-1.4,2.04-1.18h.03ZM204.73,273.24h.05l2.41,1.39-3.27,1.89-2.49-1.4,3.27-1.89h.03ZM211.67,273.59s.05,0,.05.01l2.41,1.39-6.44,3.72-2.49-1.4,6.44-3.72h.03ZM233.55,274.04h.05l2.41,1.39-2.04,1.18-2.49-1.4,2.04-1.18h.03ZM225.2,274.5h.05l2.41,1.39-2.04,1.18-2.49-1.4,2.04-1.18h.03ZM217.21,274.75h.05l2.41,1.39-2.04,1.18-2.49-1.4,2.04-1.18h.03ZM241.38,274.81h.05l2.41,1.39-2.04,1.18-2.49-1.4,2.04-1.18h.03ZM230.21,275.97h.05l2.41,1.39-2.04,1.18-2.49-1.4,2.04-1.18h.03ZM199.45,276.28h.05l2.42,1.39-2.04,1.18-2.49-1.4,2.04-1.18h.03,0ZM221.86,276.43h.05l2.41,1.39-2.04,1.18-2.49-1.4,2.04-1.18h.03ZM213.87,276.68h.05l2.41,1.39-1.87,1.08c-.13.08-.21.2-.21.34s.08.27.22.36l3.17,1.83-2.39,1.38-6.27-3.58,4.85-2.8h.04ZM238.04,276.74h.05l2.41,1.39-2.04,1.18-2.49-1.4,2.04-1.18h.03ZM226.87,277.9h.05l2.41,1.39-2.04,1.18-2.49-1.4,2.04-1.18h.03ZM196.11,278.21h.05l2.41,1.39-2.04,1.18-2.49-1.4,2.04-1.18h.03ZM218.52,278.36h.05l2.41,1.39-2.04,1.18-2.49-1.4,2.04-1.18h.03ZM233.25,279.51h.05l2.41,1.39-2.04,1.18-2.49-1.4,2.04-1.18h.03ZM223.53,279.83h.05l2.41,1.39-2.04,1.18-2.49-1.4,2.04-1.18h.03ZM192.77,280.14s.05,0,.06.01l2.41,1.39-2.04,1.18-2.49-1.4,2.04-1.18h.03,0ZM199.89,280.39h.06l2.41,1.39-2.04,1.18-2.49-1.4,2.04-1.18h.03,0ZM229.91,281.44h.05l2.41,1.39-2.04,1.18-2.49-1.4,2.04-1.18h.03ZM220.19,281.75h.05l2.41,1.39-3.62,2.09-2.49-1.4,3.62-2.09h.03ZM188.73,282.48h.05l2.41,1.39-5.38,3.11-2.49-1.4,5.38-3.11h.03ZM210.78,282.82h.06l2.41,1.39-2.04,1.18-2.49-1.4,2.04-1.18h.03,0ZM226.56,283.37h.05l2.41,1.39-2.04,1.18-2.49-1.4,2.04-1.18h.03ZM192.5,284.66h.06l2.41,1.39-2.04,1.18-2.49-1.4,2.04-1.18h.03,0ZM207.44,284.75h.06l2.41,1.39-2.04,1.18-2.5-1.4,2.04-1.18h.03ZM214.56,285h.05l2.41,1.39-2.04,1.18-2.49-1.4,2.04-1.18h.03ZM223.22,285.29h.05l2.41,1.39-2.04,1.18-2.49-1.4,2.04-1.18h.03ZM182.04,286.33h.06l2.41,1.39-2.04,1.18-2.49-1.4,2.04-1.18h.03,0ZM189.16,286.59h.06l2.41,1.39-2.04,1.18-2.49-1.4,2.04-1.18h.03,0ZM204.1,286.68h.06l2.41,1.39-2.04,1.18-2.49-1.4,2.04-1.18h.03,0ZM196.28,286.84h.05l2.41,1.39-2.04,1.18-2.49-1.4,2.04-1.18h.03ZM211.22,286.93h.06l2.41,1.39-2.04,1.18-2.49-1.4,2.04-1.18h.03,0ZM219.14,287.65h.05l2.41,1.39-2.04,1.18-2.49-1.4,2.04-1.18h.03ZM178.7,288.26h.06l6.19,3.57-2.04,1.18-6.27-3.58,2.04-1.18h.03,0ZM185.82,288.51s.05,0,.06.01l2.41,1.39-2.04,1.18-2.5-1.4,2.04-1.18h.03ZM192.94,288.77h.05l2.41,1.39-2.04,1.18-2.49-1.4,2.04-1.18h.03ZM207.88,288.86h.06l2.41,1.39-2.04,1.18-2.49-1.4,2.04-1.18h.03,0ZM200.06,289.02h.05l2.42,1.39-2.04,1.18-2.49-1.4,2.04-1.18h.03,0ZM215.8,289.58h.05l2.41,1.39-2.04,1.18-2.49-1.4,2.04-1.18h.03ZM189.6,290.7h.05l2.41,1.39-2.04,1.18-2.5-1.4,2.04-1.18h.04ZM196.71,290.95h.05l2.42,1.39-2.04,1.18-2.49-1.4,2.04-1.18h.03,0ZM203.83,291.2h.05l2.41,1.39-2.04,1.18-2.49-1.4,2.04-1.18h.03ZM212.46,291.51h.05l2.41,1.39-2.04,1.18-2.49-1.4,2.04-1.18h.03ZM186.26,292.62h.06l6.19,3.57-2.04,1.18-6.27-3.58,2.04-1.18h.03,0ZM193.37,292.87h.05l2.42,1.39-2.04,1.18-2.49-1.4,2.04-1.18h.03,0ZM200.49,293.13h.05l2.41,1.39-2.04,1.18-2.49-1.4,2.04-1.18h.03ZM209.39,294.4h.05l1.05.59-2.04,1.18-1.12-.61,2.03-1.17h.03,0ZM197.15,295.06h.05l2.41,1.39-2.04,1.18-2.49-1.4,2.04-1.18h.03ZM206.04,296.33h.06l1.05.59-2.04,1.18-1.12-.61,2.03-1.17h.03-.01ZM193.81,296.98h.05l2.41,1.39-2.04,1.18-2.49-1.4,2.04-1.18h.03ZM202.7,298.26h.06l1.05.59-2.04,1.18-1.12-.61,2.03-1.17h.03-.01ZM199.36,300.19s.05,0,.06.01l1.05.59-2.04,1.18-1.12-.61,2.03-1.17h.03-.01Z"/>
    </g>
  </g>
  <g id="pantalla">
    <g>
      <path class="cls-8" d="M367.61,277.73l-5.49-3.07c-1.71-1.05-4.49-1.08-6.22-.07l-27.33,15.77-3.59-2.1c-1.53-.89-4.01-.9-5.54-.02l-33.19,19.29c-1.53.88-1.53,2.32,0,3.2l3.5,2.02-39.5,22.8c-1.73,1.01-1.73,2.63,0,3.63l5.5,3.17c1.73,1,4.54,1,6.27,0l39.5-22.81c1.53.88,4.01.88,5.54,0l33.06-19.22c1.49-.86,1.52-2.24.12-3.14l27.32-15.77c1.73-1,1.75-2.66.05-3.7v.02Z"/>
      <g>
        <g>
          <path class="cls-13" d="M360.67,250.66l7.71-91.6c.21-2.58-1.32-5.65-3.42-6.86s-5.62-1.15-7.86.14l-115.12,66.47c-2.24,1.29-4.23,4.43-4.44,7.01l-7.71,91.6c-.21,2.58,1.32,5.65,3.42,6.86,2.1,1.21,5.62,1.15,7.86-.14l115.12-66.47c2.24-1.29,4.23-4.43,4.44-7.01h0Z"/>
          <path class="cls-22" d="M360.67,250.66l7.71-91.6c.21-2.58-1.32-5.65-3.42-6.86s-5.62-1.15-7.86.14l-115.12,66.47c-1.11.64-2.15,1.73-2.95,2.98l14.11,8.15-.87,87.76,103.96-60.02c2.24-1.29,4.23-4.43,4.44-7.01h0Z"/>
          <path class="cls-1" d="M237.43,321.81l7.71-91.6c.21-2.58,2.2-5.71,4.44-7.01l113.71-65.71c2.24-1.29,3.18-.31,2.96,2.27l-5.59,90.91c-.21,2.58-2.2,5.71-4.44,7.01l-115.12,66.47c-2.24,1.29-3.88.25-3.67-2.33h0Z"/>
          <path class="cls-11" d="M300.04,241.15c.35-4.25,3.33-9.25,6.64-11.17,3.32-1.92,5.73-.04,5.38,4.2-.35,4.24-3.33,9.24-6.64,11.17-3.32,1.92-5.73.04-5.38-4.2Z"/>
        </g>
        <g>
          <polygon class="cls-22" points="299.24 272.95 321.57 259.98 317.76 257.79 295.46 270.76 299.24 272.95"/>
          <path class="cls-1" d="M331.92,298.04l-27.18,15.7c-.49.28-1.12.41-1.74.39-.52-.02-1.07-.15-1.48-.37-.02,0-.02-.02-.04-.02l-11.97-6.91s-.04-.02-.06-.04c-.88-.52-1.55-1.74-1.55-2.77v-.64c0-1.03.71-1.46,1.61-.94l7.23,4.16,1.61.94-.36-1.84-2.55-34.94,3.79,2.2,22.33-12.97,11.62,35.28c.19,1.01-.37,2.27-1.27,2.77h0Z"/>
          <polygon points="288.41 302.31 297.68 296.96 299.56 309.43 288.41 302.31"/>
          <path class="cls-13" d="M299.25,272.96l-3.79-2.2,2.55,34.94c.21,1.01-.37,1.42-1.25.9l-7.23-4.16c-.9-.52-1.61-.09-1.61.94v.64c0,1.03.67,2.25,1.55,2.77.02.02.04.02.06.04l11.97,6.91s.02.02.04.02c.41.22.96.36,1.48.37l-3.76-41.17h0Z"/>
        </g>
      </g>
    </g>
  </g>
  <g id="Food">
    <g id="Pizza">
      <path id="Shadow-2" class="cls-8" d="M178.14,340.71c-14.72,8.5-14.72,22.27,0,30.77s38.57,8.5,53.29,0,14.72-22.27,0-30.77c-14.71-8.5-38.57-8.5-53.29,0h0Z"/>
      <g id="Plate">
        <path class="cls-11" d="M230.66,338.96c-14.43-8.33-37.83-8.33-52.27,0h0v-1.5c-7.55,4.36-11.14,10.13-10.79,15.84-.35,5.71,3.25,11.48,10.79,15.84,14.43,8.33,37.83,8.33,52.27,0,14.43-8.33,14.43-21.84,0-30.18Z"/>
        <path class="cls-11" d="M230.66,337.45c14.43,8.33,14.43,21.84,0,30.18-14.43,8.33-37.83,8.33-52.27,0-14.43-8.33-14.43-21.84,0-30.18,14.43-8.33,37.83-8.33,52.27,0Z"/>
        <path class="cls-3" d="M230.66,337.45c14.43,8.33,14.43,21.84,0,30.18-14.43,8.33-37.83,8.33-52.27,0-14.43-8.33-14.43-21.84,0-30.18,14.43-8.33,37.83-8.33,52.27,0Z"/>
        <path class="cls-11" d="M186.81,340.36c-9.92,5.73-9.92,15.01,0,20.74,9.92,5.73,26,5.73,35.92,0s9.92-15.01,0-20.74c-9.92-5.73-26-5.73-35.92,0Z"/>
        <path class="cls-11" d="M186.81,340.36c-9.92,5.73-9.92,15.01,0,20.74,9.92,5.73,26,5.73,35.92,0s9.92-15.01,0-20.74c-9.92-5.73-26-5.73-35.92,0Z"/>
        <path class="cls-11" d="M188.03,341.06c-9.24,5.34-9.24,13.99,0,19.33s24.23,5.34,33.47,0,9.24-13.99,0-19.33-24.23-5.34-33.47,0Z"/>
        <path class="cls-3" d="M188.03,341.06c-9.24,5.34-9.24,13.99,0,19.33s24.23,5.34,33.47,0,9.24-13.99,0-19.33-24.23-5.34-33.47,0Z"/>
      </g>
      <path class="cls-8" d="M241.22,355.03c-.81-1.49-1.86-2.9-2.96-4.16-1.56-1.79-3.27-3.49-5.27-4.77-2.55-1.63-5.49-2.54-8.39-3.42-3.3-1.01-6.67-2.03-10.12-1.9-4.18.15-8.09,1.97-11.87,3.76-6.35,3-12.69,6-19.04,8.99-3.15,1.49-6.3,2.97-9.44,4.46-.91.43-3.18,1.08-4.19,2.04.72,1.12,1.61,2.21,2.67,3.26.08.02.15.03.23.05,13.89,2.86,28.14,3.46,42.32,3.58,5.6.05,11.21.01,16.81-.08,5.32-3.4,8.41-7.55,9.27-11.81h-.02Z"/>
      <path class="cls-25" d="M168.77,357.6h0c.1,1.68,1.4,3.04,3.08,3.22,2.29.25,5.88.55,10.61.64,8.67.16,46.4,1.57,48.2.41,2.86-1.86-.61-6.21-.61-6.21l-58.82,1.04-2.47.9h0Z"/>
      <g>
        <path class="cls-21" d="M215.48,330.46c1.53-.97,4.12-1.05,5.85-.2,1.69.83,2.71,1.66,3.69,2.75,1.51,1.68,3.37,1.58,7.66,4.62,4.29,3.04,4.1,4.8,4.88,6.41.67,1.38.23,3.18.73,4.66.5,1.49,1.9,2.64,2.6,4.09.66,1.37.99,2.96.6,4.43-.38,1.47-1.57,2.78-3.08,3.03-.49.08-.99.05-1.46.17-.62.16-1.13.56-1.7.85-1.26.65-3.12,1.44-4.35.74-1.49-.85-1.77-2.2-1.77-4.39-.62-1.71-2.45-3.41-3.52-4.9-2.07-2.89-4.15-5.78-6.22-8.66-.49-.68-7.83-11.11-7.93-11.04l4.04-2.55h-.02Z"/>
        <path class="cls-6" d="M221.97,347.67c.32.44.64.88.95,1.33.75,1.04,1.5,2.09,2.25,3.13.23.32.45.63.68.92.02.03.05.06.07.09.25.32.52.61.85.88.53.43.87.91,1.07,1.47.54.7,1.02,1.42,1.28,2.13,0,2.19.28,3.54,1.77,4.39,1.23.7,3.09-.09,4.35-.74.56-.29,1.08-.69,1.7-.85.48-.12.98-.09,1.46-.17,1.5-.24,2.69-1.55,3.08-3.03.38-1.47.06-3.06-.6-4.43-.34-.71-.84-1.34-1.33-1.98.44,1.17.17,2.66-.68,3.19-1.13.71-4.74.32-6.2-.46-1.46-.78-.9-3.18-1.35-4.29-.45-1.1-2.59-1.95-2.2-4.29s-1.07-4.16-4.49-5.31-3.91-2.56-5.29-4.12-5.16-2.01-7.9-2.53c.1-.06,7.43,10.34,7.93,11.04.86,1.2,1.73,2.41,2.59,3.61v.02Z"/>
        <path class="cls-25" d="M211.44,333.02c3.79,2.18,7.07,4.66,9.75,7.35.03.04.07.08.12.12.13.13.26.27.39.4h0c4.73,4.97,7.41,10.67,7.41,16.73h-60.35l4.28-2.47,1.57-.91c.06-.04.13-.08.2-.12l36.61-21.11h.01Z"/>
        <path class="cls-4" d="M211.44,333.02c3.79,2.18,7.07,4.66,9.75,7.35.03.04.07.08.12.12.13.13.26.27.39.4h0c4.73,4.97,7.41,10.67,7.41,16.73h-60.35l4.28-2.47,1.57-.91c.06-.04.13-.08.2-.12l36.61-21.11h.01Z"/>
      </g>
      <path class="cls-12" d="M190.74,348.3c.89.51,1.49,1.12,1.81,1.77.7,1.39.09,2.96-1.81,4.05-2.79,1.61-7.31,1.61-10.1,0-1.46-.84-2.15-1.95-2.08-3.06.05-1.01.75-2,2.08-2.77,2.79-1.61,7.31-1.61,10.1,0h0Z"/>
      <path class="cls-12" d="M207.97,347.65c1.25-.01,2.43.16,3.46.48,2.22.68,3.74,2.02,3.78,3.57.06,2.27-3.09,4.14-7.03,4.18-2.06.02-3.93-.47-5.25-1.27-1.21-.72-1.96-1.7-1.99-2.79-.06-2.27,3.09-4.14,7.03-4.18h0Z"/>
      <path class="cls-12" d="M214.65,336.06c1.25-.01,2.43.16,3.46.48,2.22.68,3.74,2.02,3.78,3.57.06,2.27-3.09,4.14-7.03,4.18-2.06.02-3.93-.47-5.25-1.27-1.21-.72-1.96-1.7-1.99-2.79-.06-2.27,3.09-4.14,7.03-4.18h0Z"/>
    </g>
    <g id="Soda">
      <path class="cls-8" d="M86.35,340.04c5.71,3.3,14.98,3.3,20.69,0s5.71-8.65,0-11.95c-5.71-3.3-14.98-3.3-20.69,0s-5.71,8.65,0,11.95Z"/>
      <g>
        <path class="cls-23" d="M110.51,333.98h.02v-40.81h-24.71v40.81h.02c-.1,1.9,1.09,3.82,3.6,5.27,4.83,2.79,12.65,2.79,17.47,0,2.51-1.45,3.7-3.37,3.6-5.27Z"/>
        <path class="cls-26" d="M89.43,298.21c4.83,2.79,12.65,2.79,17.47,0,4.83-2.79,4.82-7.3,0-10.09-4.83-2.79-12.65-2.79-17.47,0-4.83,2.79-4.82,7.3,0,10.09Z"/>
        <path class="cls-23" d="M89.97,297.8c4.53,2.56,11.88,2.56,16.41,0s4.53-6.71,0-9.26c-4.53-2.56-11.88-2.56-16.41,0-4.53,2.56-4.53,6.71,0,9.26Z"/>
        <path class="cls-24" d="M106.37,289.73c-4.53-2.56-11.88-2.56-16.41,0-1.99,1.13-3.11,2.56-3.35,4.03.24,1.47,1.35,2.91,3.35,4.03,4.53,2.56,11.88,2.56,16.41,0,2-1.13,3.11-2.56,3.35-4.03-.24-1.47-1.35-2.91-3.35-4.03Z"/>
        <path class="cls-11" d="M85.82,329.81c-.02,1.84,1.19,3.68,3.62,5.08,4.83,2.79,12.65,2.79,17.47,0,2.41-1.39,3.62-3.22,3.62-5.04v-32.66c0,1.83-1.21,3.65-3.62,5.04-4.83,2.79-12.65,2.79-17.47,0-2.43-1.4-3.64-3.24-3.62-5.08v32.66Z"/>
        <path class="cls-4" d="M85.82,329.81c-.02,1.84,1.19,3.68,3.62,5.08,4.83,2.79,12.65,2.79,17.47,0,2.41-1.39,3.62-3.22,3.62-5.04v-32.66c0,1.83-1.21,3.65-3.62,5.04-4.83,2.79-12.65,2.79-17.47,0-2.43-1.4-3.64-3.24-3.62-5.08v32.66Z"/>
        <path class="cls-5" d="M103.23,340.71c-4.54,1.17-10.07.7-13.79-1.46-2.51-1.44-3.71-3.36-3.6-5.27h-.02v-40.81c0,1.83,1.21,3.66,3.62,5.05.38.22.78.42,1.19.6v38.17c0,2.06,6.89,4.51,12.6,3.73h0Z"/>
        <path class="cls-22" d="M104.35,294.24h0c-1.74-1-4.09-1.27-5.25-.6-1.16.67-.7,2.03,1.04,3.03h0c1.74,1,4.09,1.27,5.25.6,1.16-.67.7-2.03-1.04-3.03Z"/>
        <path class="cls-23" d="M99.72,292.06l-2.14-1.23c-1.74-1-4.09-1.27-5.25-.6-1.16.67-.7,2.03,1.04,3.03l2.14,1.23c1.74,1,4.09,1.27,5.25.6,1.16-.67.7-2.03-1.04-3.03ZM95.56,292.09c-.63.37-1.66.37-2.3,0-.63-.37-.63-.96,0-1.33s1.66-.37,2.3,0c.63.37.63.96,0,1.33ZM99.8,294.29c-.63.37-1.66.37-2.3,0-.63-.37-.63-.96,0-1.33s1.66-.37,2.3,0c.63.37.63.96,0,1.33Z"/>
      </g>
      <g>
        <polygon class="cls-22" points="109.03 331.03 103.92 328.41 100.59 330.29 95.36 326.75 97.56 322.71 101.79 327.14 104.07 325.52 109.03 331.03"/>
        <polygon class="cls-22" points="94.14 313.46 99.71 320.77 102.37 319.49 103.72 324.51 105.92 323.12 108.66 328.72 107.64 318.78 105.24 320.39 104.5 313.77 100.88 315.68 99.86 309.68 94.14 313.46"/>
        <g id="Shine">
          <path class="cls-22" d="M94.65,319.38c-.05.05-.13.06-.18.01l-.1-.08c-.27-.21-.65-.2-.9.04l-.1.09c-.05.05-.13.05-.18,0s-.06-.13-.01-.18l.08-.1h0c.21-.27.2-.65-.04-.9l-.09-.1c-.05-.05-.05-.13,0-.18s.13-.06.18-.01l.1.08c.27.21.65.2.9-.04l.1-.09c.05-.05.13-.05.18,0s.06.13.01.18l-.08.1c-.21.27-.2.65.04.9l.09.1c.05.05.05.13,0,.18ZM93.65,318.93c.16-.05.33-.06.5-.02-.05-.16-.06-.33-.02-.5-.16.05-.33.06-.5.02.05.16.06.33.02.5Z"/>
          <path class="cls-22" d="M95.8,322.66c-.33.35-.88.38-1.23.05-.35-.33-.38-.88-.05-1.23.33-.35.88-.38,1.23-.05.35.33.38.88.05,1.23ZM94.71,321.66c-.22.24-.21.62.03.85.24.22.62.21.85-.03.22-.24.21-.62-.03-.85-.24-.22-.62-.21-.85.03Z"/>
          <g>
            <path class="cls-22" d="M91.2,322.1c-.05.06-.14.06-.19,0l-.33-.31c-.06-.05-.06-.14,0-.19.05-.06.14-.06.19,0l.33.31c.06.05.06.14,0,.19Z"/>
            <path class="cls-22" d="M91.22,322.48l-.31.33c-.05.06-.14.06-.19,0-.06-.05-.06-.14,0-.19l.31-.33c.05-.05.14-.06.19,0,.06.05.06.14,0,.19Z"/>
            <path class="cls-22" d="M91.95,322.79c-.05.06-.14.06-.19,0l-.33-.31c-.06-.05-.06-.14,0-.19s.14-.06.19,0l.33.31c.06.05.06.14,0,.19Z"/>
            <path class="cls-22" d="M91.91,321.73l-.31.33c-.05.06-.14.06-.19,0-.06-.05-.06-.14,0-.19l.31-.33c.05-.06.14-.06.19,0,.06.05.06.14,0,.19Z"/>
          </g>
        </g>
        <g id="Shine-2">
          <path class="cls-22" d="M106.82,314.66c-.44-.19-.64-.71-.45-1.15s.71-.64,1.15-.45.64.71.45,1.15-.71.64-1.15.45ZM107.4,313.32c-.3-.13-.66,0-.79.31-.13.3,0,.66.31.79.3.13.66,0,.79-.31.13-.3,0-.66-.31-.79Z"/>
          <g>
            <path class="cls-22" d="M105.84,310.14c-.07-.03-.1-.11-.07-.18l.18-.42c.03-.07.11-.1.18-.07s.1.11.07.18l-.18.42c-.03.07-.11.1-.18.07Z"/>
            <path class="cls-22" d="M105.48,310.28l-.42-.18c-.07-.03-.1-.11-.07-.18s.11-.1.18-.07l.42.18c.07.03.1.11.07.18s-.11.1-.18.07Z"/>
            <path class="cls-22" d="M105.43,311.08c-.07-.03-.1-.11-.07-.18l.18-.42c.03-.07.11-.1.18-.07s.1.11.07.18l-.18.42c-.03.07-.11.1-.18.07Z"/>
            <path class="cls-22" d="M106.42,310.69l-.42-.18c-.07-.03-.1-.11-.07-.18s.11-.1.18-.07l.42.18c.07.03.1.11.07.18s-.11.1-.18.07Z"/>
          </g>
        </g>
        <g id="Shine-3">
          <path class="cls-22" d="M98.51,331.22c.03.07,0,.14-.06.17l-.12.06c-.31.16-.45.51-.34.83l.04.12c.02.07-.01.14-.08.17s-.14,0-.17-.06l-.06-.12h0c-.16-.31-.51-.45-.83-.34l-.12.04c-.07.02-.14-.01-.17-.08s0-.14.06-.17l.12-.06c.31-.16.45-.51.34-.83l-.04-.13c-.02-.07.01-.14.08-.17s.14,0,.17.06l.06.12c.16.31.51.45.83.34l.12-.04c.07-.02.14.01.17.08h0ZM97.69,331.95c.02-.17.09-.33.19-.46-.17-.02-.33-.09-.46-.19-.02.17-.09.33-.19.46.17.02.33.09.46.19Z"/>
          <path class="cls-22" d="M104.25,331.29c.18.44-.03.95-.47,1.14-.44.18-.95-.03-1.14-.47-.18-.44.03-.95.47-1.14.44-.18.95.03,1.14.47ZM102.89,331.85c.13.3.48.45.78.32.3-.13.45-.48.32-.78s-.48-.45-.78-.32c-.31.13-.45.48-.32.78Z"/>
          <g>
            <path class="cls-22" d="M100.39,334.36c.03.07,0,.15-.07.18l-.42.17c-.07.03-.15,0-.18-.07s0-.15.07-.18l.42-.17c.07-.03.15,0,.18.07Z"/>
            <path class="cls-22" d="M100.74,334.5l.17.42c.03.07,0,.15-.07.18s-.15,0-.18-.07l-.17-.42c-.03-.07,0-.15.07-.18s.15,0,.18.07Z"/>
            <path class="cls-22" d="M101.33,333.96c.03.07,0,.15-.07.18l-.42.17c-.07.03-.15,0-.18-.07s0-.15.07-.18l.42-.17c.07-.03.15,0,.18.07Z"/>
            <path class="cls-22" d="M100.35,333.56l.17.42c.03.07,0,.15-.07.18s-.15,0-.18-.07l-.17-.42c-.03-.07,0-.15.07-.18s.15,0,.18.07Z"/>
          </g>
        </g>
      </g>
    </g>
    <g id="Chips">
      <g>
        <path class="cls-25" d="M146.57,333.05c-3.95-.01-6.99,5.09-12.63,4.32-5.64-.78-9.59,3.25-6.99,6.89s10.48,6.99,19.11,2.59c8.64-4.4,6.54-13.79.51-13.81h0Z"/>
        <path class="cls-21" d="M148.75,345.05c-1.29-.05-2.61-.32-3.96-1.08-4.96-2.8-10.11-.51-9.04,3.83.09.35.21.7.36,1.07,2.98.29,6.39-.19,9.94-2,1.06-.54,1.95-1.15,2.7-1.81h0Z"/>
        <path class="cls-21" d="M146.05,346.86c3.61-1.84,5.34-4.55,5.7-7.08-2.75,6.52-11.73,8.98-16.9,7.96-5.16-1.02-7.9-3.47-8.6-6.72-.27,1.02-.09,2.15.69,3.25,2.59,3.64,10.48,6.99,19.11,2.59h0Z"/>
      </g>
      <g>
        <path class="cls-25" d="M158.98,344.55c-3.66-1.47-8.38,2.15-13.34-.65s-10.11-.51-9.04,3.83,7.16,10.37,16.81,9.46,11.17-10.4,5.57-12.64h0Z"/>
        <path class="cls-21" d="M162.08,350.71c-.63,3-3.46,6-8.67,6.48-9.65.9-15.74-5.12-16.8-9.46-.25-1-.16-1.9.18-2.64-.06.5-.03,1.03.11,1.62,1.07,4.34,7.16,10.36,16.81,9.46,4.61-.43,7.37-2.83,8.37-5.46h0Z"/>
      </g>
    </g>
  </g>
</svg>